<svg width="448" height="229" viewBox="0 0 448 229" fill="none" xmlns="http://www.w3.org/2000/svg">
<path d="M0 217.5L52 226C52 226 101 204 146 204C191 204 210.499 205 252 214.5C293.501 224 332.5 228.5 356 228.5C379.5 228.5 408 217.5 408 217.5L424 211.5C424 211.5 409.001 214.5 380 214.5C351.008 214.5 341.982 212.996 318.021 209.004L318 209C277.543 202.259 216 178.5 216 178.5C216 178.5 188.687 168.02 170 165.5C143.239 161.892 128.413 164.383 102 170C75.9571 175.538 61.5731 181.122 38 193.5C22.606 201.583 0 217.5 0 217.5Z" fill="#B469FF"/>
<path d="M22 101.5L144 32.5L176 40.5L192 51L248 21H290L416 112H352L250 34L204 58L276 101.5L242 104L146 47L50 101.5H22Z" fill="#B469FF"/>
<path d="M62 108.5H76V140.5L62 148.5V108.5Z" fill="#B469FF"/>
<path d="M80 108.5H94V136.5L80 140.5V108.5Z" fill="#B469FF"/>
<path d="M284 129L298 131.5V104H284V129Z" fill="#B469FF"/>
<path d="M306 104H322V136.5L306 133.5V104Z" fill="#B469FF"/>
<path d="M62 172C62 172 118.248 155.377 155 157C194.18 158.731 200.5 164.5 252 183C303.5 201.5 359 206 378 204C397 202 412 190.5 417.5 183C423 175.5 423 163 423 163C388.439 160.657 360.5 163 334.5 157C308.5 151 276.056 140.038 237.5 136.5C197.622 132.84 173.815 129.649 135 139.5C104.753 147.176 62 172 62 172Z" fill="#3ADB5E"/>
<path d="M167.204 26H159L193.184 0L226 26H218.48L193.184 6.84211L167.204 26Z" fill="#3ADB5E"/>
<path d="M54.5 167.463C26 184.463 11 200.463 11 200.463C11 200.463 27 191.963 54.5 177.963C82 163.963 102 156.5 119.5 151.463C137 146.426 152 140.963 187.5 138.463C223 135.963 258.5 144.463 273 147.5C287.5 150.537 322.5 159.926 350.5 163.963C378.5 168 406 166.463 420 163.963C432.204 161.784 444.027 153.906 446.861 151.92C445.225 152.871 439.72 155.167 422.5 157.463C400 160.463 386.5 157.463 368.5 154.463C350.5 151.463 307 141.463 267.5 133.463C228 125.463 200.5 120.963 151.5 129.963C102.5 138.963 83 150.463 54.5 167.463Z" fill="#B469FF"/>
<rect x="128" y="90" width="20" height="15" fill="#3ADB5E"/>
<rect x="182" y="23" width="11" height="8" fill="#3ADB5E"/>
<rect x="151" y="90" width="20" height="15" fill="#3ADB5E"/>
<rect x="194" y="23" width="11" height="8" fill="#3ADB5E"/>
<rect x="128" y="109" width="20" height="9" fill="#3ADB5E"/>
<rect x="182" y="33" width="11" height="5" fill="#3ADB5E"/>
<rect x="151" y="109" width="20" height="9" fill="#3ADB5E"/>
<rect x="194" y="33" width="11" height="5" fill="#3ADB5E"/>
</svg>
