<svg id="Layer_1" data-name="Layer 1" xmlns="http://www.w3.org/2000/svg" viewBox="0 0 613.95 303.79"><defs><style>.cls-1{fill:#B469FF;}.cls-2{fill:#cb2026;}</style></defs><path class="cls-1" d="M377.62,639.51a203.81,203.81,0,0,0,57.92,5.71c19.07-.92,36.23-4.56,55.16-8.58,8.72-1.86,8.65-2.06,26.29-6.22,29.77-7,45-10.6,59.55-13,24.09-4.07,42.18-4.32,62.35-4.59a539.41,539.41,0,0,1,86.61,5.7,516.6,516.6,0,0,1,115.84,31.73,302.56,302.56,0,0,0-34.57-22.82A280.86,280.86,0,0,0,686.83,590.5c-22.91-2.12-40.49-1.44-54.89-.89a468.92,468.92,0,0,0-46.87,4.1A431.66,431.66,0,0,0,540,602.44c-10.13,2.59-15.09,4.29-36.36,11-28.68,9.12-43,13.68-50.08,15.69C436.31,634.07,411,639.28,377.62,639.51Z" transform="translate(-233.02 -388.11)"/><polygon class="cls-2" points="512.8 159.65 557.66 176.36 429.02 29.47 348.76 29.47 387.46 76.96 417.58 46.84 512.8 159.65"/><path class="cls-1" d="M271.73,518.29l51-79.17,43.1-5.27V388.11H408.5v79.16l10.12-.44V422L526.3,405.92l33.93-5.06L662,525.43,627.74,524,551,425.05,461.28,539.18S339.45,598.33,271.73,518.29Z" transform="translate(-233.02 -388.11)"/><rect class="cls-1" x="423.25" y="101.04" width="14.02" height="24.9"/><polygon class="cls-1" points="402.3 77.79 402.3 91.15 414.01 91.81 414.01 77.79 402.3 77.79"/><rect class="cls-1" x="423.25" y="77.79" width="14.02" height="13.36"/><polygon class="cls-1" points="407.41 101.04 407.41 106.81 413.02 112.26 413.02 101.04 407.41 101.04"/><rect class="cls-1" x="296.26" y="105.83" width="13.85" height="27.54"/><rect class="cls-1" x="319.51" y="105.83" width="13.85" height="27.54"/><rect class="cls-1" x="296.26" y="80.43" width="13.85" height="15.83"/><rect class="cls-1" x="319.51" y="80.43" width="13.85" height="15.83"/><path class="cls-2" d="M847,641.43s-94.43-151.92-347.82-91.57L491,551.59c-2.93.54-7.32,1.39-12.64,2.52-14.2,3-24.43,5.86-25.41,6.11C264.69,608.31,233,484.37,233,484.37c6.16,100.66,90.6,133.31,90.6,133.31,55,25.57,143.49-4.83,163.76-12.43C495.06,602.37,702,526.63,847,641.43Z" transform="translate(-233.02 -388.11)"/><path class="cls-1" d="M284.27,673.29a8.31,8.31,0,0,0,4.71-7.83c0-5.66-4.51-9.08-12.58-9.08H260.65v35.11h16.74c8.89,0,13.45-3.46,13.45-9.48A8.48,8.48,0,0,0,284.27,673.29Zm-18.6-12.85H276c5.11,0,8,1.91,8,5.62s-2.91,5.62-8,5.62H265.67Zm11.52,27H265.67V675.74h11.52c5.57,0,8.59,1.81,8.59,5.87S282.76,687.43,277.19,687.43Z" transform="translate(-233.02 -388.11)"/><path class="cls-1" d="M307.09,656.38v5.12h5v-.76h19.76v-4.36Zm5,30.75V675.79h17.61v-4.26H312.1v-1.42h-5v21.38h25.48v-4.36Z" transform="translate(-233.02 -388.11)"/><path class="cls-1" d="M374.34,656.38v26.19l-10-12.46-6.94-8.61-4.11-5.12h-4.11v35.11h5V665.31l3.86,4.8,17.2,21.38h4.12V656.38Z" transform="translate(-233.02 -388.11)"/><path class="cls-1" d="M408.78,661.5a15.6,15.6,0,0,1,5.74-1.06,14.71,14.71,0,0,1,5.67,1.06,14.2,14.2,0,0,1,4.51,3l3-3,.1-.1c-3.2-3.56-7.92-5.42-13.49-5.42a19.08,19.08,0,0,0-13.91,5.52,17,17,0,0,0-4.51,8.61,18.5,18.5,0,0,0-.38,3.83c0,10.38,7.92,17.95,18.7,17.95a20.67,20.67,0,0,0,13.29-4.46V673.74h-4.81v11.44a14.88,14.88,0,0,1-8.22,2.25c-8.07,0-14-5.77-14-13.49a14.4,14.4,0,0,1,.51-3.83A12.79,12.79,0,0,1,408.78,661.5Z" transform="translate(-233.02 -388.11)"/><path class="cls-1" d="M467.34,670.11l-3.91-8.61-2.33-5.12h-5l-2.32,5.12-3.9,8.61-9.68,21.38h5.16l3.87-8.77h18.66l3.86,8.77h5.27ZM451,678.71l3.79-8.6,3.79-8.61,3.79,8.61,3.78,8.6Z" transform="translate(-233.02 -388.11)"/><path class="cls-1" d="M495.76,687.13V656.38h-5v35.11h24v-4.36Z" transform="translate(-233.02 -388.11)"/><path class="cls-2" d="M551,656.38v5.12h5v-.76h19.76v-4.36Zm5,30.75V675.79H573.6v-4.26H556v-1.42h-5v21.38h25.48v-4.36Z" transform="translate(-233.02 -388.11)"/><path class="cls-2" d="M598.88,670.11c-2-.9-3.27-2.16-3.27-4.3a4.83,4.83,0,0,1,2.6-4.31,12,12,0,0,1,5.92-1.26,17.57,17.57,0,0,1,6.46,1.26,16.6,16.6,0,0,1,3.17,1.61l.67-1.61,1-2.4A20.5,20.5,0,0,0,604.13,656c-6.48,0-10.49,2.27-12.29,5.52A9.05,9.05,0,0,0,590.7,666a8.54,8.54,0,0,0,.93,4.1c4.07,7.8,20.33,4.61,20.33,12.1,0,3.07-2.61,5.42-8.67,5.42a18.09,18.09,0,0,1-11.59-4.06l-1.86,3.91c2.82,2.61,8.08,4.41,13.45,4.41,9.28,0,13.59-4.61,13.59-10C616.88,672.22,604.85,672.86,598.88,670.11Z" transform="translate(-233.02 -388.11)"/><path class="cls-2" d="M627.1,656.38v4.36h12v30.75h5V660.74h12v-4.36Z" transform="translate(-233.02 -388.11)"/><path class="cls-2" d="M690.12,670.11l-3.91-8.61-2.33-5.12h-5l-2.32,5.12-3.91,8.61L663,691.49h5.17l3.86-8.77h18.67l3.86,8.77h5.26Zm-16.32,8.6,3.78-8.6,3.79-8.61,3.79,8.61,3.79,8.6Z" transform="translate(-233.02 -388.11)"/><path class="cls-2" d="M706.7,656.38v4.36h12v30.75h5V660.74h12v-4.36Z" transform="translate(-233.02 -388.11)"/><path class="cls-2" d="M754.69,687.13V675.79H772.3v-4.26H754.69v-1.42h-5v21.38h25.48v-4.36Zm0-26.39h19.76v-4.36H749.68v5.12h5Z" transform="translate(-233.02 -388.11)"/><path class="cls-2" d="M794.32,665.81c0-3.06,2.55-5.57,8.52-5.57a18,18,0,0,1,9.63,2.87l1.66-4A20.57,20.57,0,0,0,802.84,656c-9.23,0-13.44,4.61-13.44,10,0,13,21.27,7.63,21.27,16.2,0,3.07-2.61,5.42-8.69,5.42a18.05,18.05,0,0,1-11.57-4.06l-1.86,3.91c2.8,2.61,8.07,4.41,13.43,4.41,9.29,0,13.61-4.61,13.61-10C815.59,669,794.32,674.39,794.32,665.81Z" transform="translate(-233.02 -388.11)"/></svg>